<mxfile host="app.diagrams.net" modified="2023-11-05T11:01:17.375Z" agent="Mozilla/5.0 (Windows NT 10.0; Win64; x64) AppleWebKit/537.36 (KHTML, like Gecko) Chrome/119.0.0.0 Safari/537.36" etag="vYMn62SN2ccfpZj44aw6" version="22.0.8" type="device">
  <diagram name="Page-1" id="Gm7fUyk46x17YJOh19ub">
    <mxGraphModel dx="2627" dy="1809" grid="1" gridSize="10" guides="1" tooltips="1" connect="1" arrows="1" fold="1" page="1" pageScale="1" pageWidth="850" pageHeight="1100" math="0" shadow="0">
      <root>
        <mxCell id="0" />
        <mxCell id="1" parent="0" />
        <mxCell id="Q0wwJDRSxAOTeiTxXNb1-225" style="edgeStyle=orthogonalEdgeStyle;rounded=0;orthogonalLoop=1;jettySize=auto;html=1;" edge="1" parent="1" source="Q0wwJDRSxAOTeiTxXNb1-1" target="Q0wwJDRSxAOTeiTxXNb1-224">
          <mxGeometry relative="1" as="geometry" />
        </mxCell>
        <mxCell id="Q0wwJDRSxAOTeiTxXNb1-1" value="customer" style="whiteSpace=wrap;html=1;align=center;" vertex="1" parent="1">
          <mxGeometry x="-140" y="-100" width="100" height="40" as="geometry" />
        </mxCell>
        <mxCell id="Q0wwJDRSxAOTeiTxXNb1-2" value="card" style="whiteSpace=wrap;html=1;align=center;" vertex="1" parent="1">
          <mxGeometry x="170" y="-100" width="100" height="40" as="geometry" />
        </mxCell>
        <mxCell id="Q0wwJDRSxAOTeiTxXNb1-3" value="employee" style="whiteSpace=wrap;html=1;align=center;" vertex="1" parent="1">
          <mxGeometry x="365" y="160" width="100" height="40" as="geometry" />
        </mxCell>
        <mxCell id="Q0wwJDRSxAOTeiTxXNb1-4" value="ice-cream" style="whiteSpace=wrap;html=1;align=center;" vertex="1" parent="1">
          <mxGeometry x="-140" y="160" width="100" height="40" as="geometry" />
        </mxCell>
        <mxCell id="Q0wwJDRSxAOTeiTxXNb1-5" value="manager" style="whiteSpace=wrap;html=1;align=center;" vertex="1" parent="1">
          <mxGeometry x="870" y="160" width="100" height="40" as="geometry" />
        </mxCell>
        <mxCell id="Q0wwJDRSxAOTeiTxXNb1-6" value="owner" style="whiteSpace=wrap;html=1;align=center;" vertex="1" parent="1">
          <mxGeometry x="1095" y="-195" width="110" height="40" as="geometry" />
        </mxCell>
        <mxCell id="Q0wwJDRSxAOTeiTxXNb1-7" value="branch" style="whiteSpace=wrap;html=1;align=center;" vertex="1" parent="1">
          <mxGeometry x="870" y="-350" width="100" height="40" as="geometry" />
        </mxCell>
        <mxCell id="Q0wwJDRSxAOTeiTxXNb1-8" value="company" style="whiteSpace=wrap;html=1;align=center;" vertex="1" parent="1">
          <mxGeometry x="355" y="-350" width="100" height="40" as="geometry" />
        </mxCell>
        <mxCell id="Q0wwJDRSxAOTeiTxXNb1-9" value="account" style="whiteSpace=wrap;html=1;align=center;" vertex="1" parent="1">
          <mxGeometry x="70" y="-500" width="100" height="40" as="geometry" />
        </mxCell>
        <mxCell id="Q0wwJDRSxAOTeiTxXNb1-10" value="order" style="whiteSpace=wrap;html=1;align=center;" vertex="1" parent="1">
          <mxGeometry x="105" y="300" width="110" height="40" as="geometry" />
        </mxCell>
        <mxCell id="Q0wwJDRSxAOTeiTxXNb1-11" value="transaction" style="whiteSpace=wrap;html=1;align=center;" vertex="1" parent="1">
          <mxGeometry x="-380" y="-250" width="110" height="40" as="geometry" />
        </mxCell>
        <mxCell id="Q0wwJDRSxAOTeiTxXNb1-12" value="name" style="ellipse;whiteSpace=wrap;html=1;align=center;" vertex="1" parent="1">
          <mxGeometry x="-230" y="-160" width="100" height="40" as="geometry" />
        </mxCell>
        <mxCell id="Q0wwJDRSxAOTeiTxXNb1-13" value="phone_num" style="ellipse;whiteSpace=wrap;html=1;align=center;" vertex="1" parent="1">
          <mxGeometry x="-220" y="-210" width="100" height="40" as="geometry" />
        </mxCell>
        <mxCell id="Q0wwJDRSxAOTeiTxXNb1-14" value="cus_id" style="ellipse;whiteSpace=wrap;html=1;align=center;fontStyle=4;" vertex="1" parent="1">
          <mxGeometry x="-140" y="-250" width="100" height="40" as="geometry" />
        </mxCell>
        <mxCell id="Q0wwJDRSxAOTeiTxXNb1-15" value="card_num" style="ellipse;shape=doubleEllipse;margin=3;whiteSpace=wrap;html=1;align=center;" vertex="1" parent="1">
          <mxGeometry x="-60" y="-210" width="100" height="40" as="geometry" />
        </mxCell>
        <mxCell id="Q0wwJDRSxAOTeiTxXNb1-16" value="total_purchase&lt;br&gt;amount" style="ellipse;whiteSpace=wrap;html=1;align=center;" vertex="1" parent="1">
          <mxGeometry x="-50" y="-160" width="100" height="40" as="geometry" />
        </mxCell>
        <mxCell id="Q0wwJDRSxAOTeiTxXNb1-17" value="has" style="shape=rhombus;perimeter=rhombusPerimeter;whiteSpace=wrap;html=1;align=center;" vertex="1" parent="1">
          <mxGeometry x="20" y="-110" width="80" height="60" as="geometry" />
        </mxCell>
        <mxCell id="Q0wwJDRSxAOTeiTxXNb1-19" value="card_num" style="ellipse;whiteSpace=wrap;html=1;align=center;fontStyle=4;" vertex="1" parent="1">
          <mxGeometry x="170" y="20" width="100" height="40" as="geometry" />
        </mxCell>
        <mxCell id="Q0wwJDRSxAOTeiTxXNb1-20" value="cus_id" style="ellipse;whiteSpace=wrap;html=1;align=center;" vertex="1" parent="1">
          <mxGeometry x="100" y="-20" width="100" height="40" as="geometry" />
        </mxCell>
        <mxCell id="Q0wwJDRSxAOTeiTxXNb1-22" value="phone_num" style="ellipse;shape=doubleEllipse;margin=3;whiteSpace=wrap;html=1;align=center;" vertex="1" parent="1">
          <mxGeometry x="380" y="-100" width="100" height="40" as="geometry" />
        </mxCell>
        <mxCell id="Q0wwJDRSxAOTeiTxXNb1-24" value="emp_id" style="ellipse;whiteSpace=wrap;html=1;align=center;fontStyle=4;" vertex="1" parent="1">
          <mxGeometry x="520" y="40" width="100" height="40" as="geometry" />
        </mxCell>
        <mxCell id="Q0wwJDRSxAOTeiTxXNb1-27" value="shift" style="ellipse;whiteSpace=wrap;html=1;align=center;" vertex="1" parent="1">
          <mxGeometry x="290" width="100" height="40" as="geometry" />
        </mxCell>
        <mxCell id="Q0wwJDRSxAOTeiTxXNb1-28" value="hire_date" style="ellipse;whiteSpace=wrap;html=1;align=center;dashed=1;" vertex="1" parent="1">
          <mxGeometry x="230" y="100" width="100" height="40" as="geometry" />
        </mxCell>
        <mxCell id="Q0wwJDRSxAOTeiTxXNb1-29" value="salary" style="ellipse;whiteSpace=wrap;html=1;align=center;" vertex="1" parent="1">
          <mxGeometry x="260" y="50" width="100" height="40" as="geometry" />
        </mxCell>
        <mxCell id="Q0wwJDRSxAOTeiTxXNb1-31" value="name" style="ellipse;whiteSpace=wrap;html=1;align=center;" vertex="1" parent="1">
          <mxGeometry x="330" y="-50" width="100" height="40" as="geometry" />
        </mxCell>
        <mxCell id="Q0wwJDRSxAOTeiTxXNb1-32" value="address" style="ellipse;whiteSpace=wrap;html=1;align=center;" vertex="1" parent="1">
          <mxGeometry x="430" y="-150" width="100" height="40" as="geometry" />
        </mxCell>
        <mxCell id="Q0wwJDRSxAOTeiTxXNb1-33" value="n_id" style="ellipse;whiteSpace=wrap;html=1;align=center;" vertex="1" parent="1">
          <mxGeometry x="510" y="-90" width="100" height="40" as="geometry" />
        </mxCell>
        <mxCell id="Q0wwJDRSxAOTeiTxXNb1-34" value="man_id" style="ellipse;whiteSpace=wrap;html=1;align=center;" vertex="1" parent="1">
          <mxGeometry x="520" y="-30" width="100" height="40" as="geometry" />
        </mxCell>
        <mxCell id="Q0wwJDRSxAOTeiTxXNb1-37" value="sells" style="shape=rhombus;perimeter=rhombusPerimeter;whiteSpace=wrap;html=1;align=center;" vertex="1" parent="1">
          <mxGeometry x="100" y="150" width="120" height="60" as="geometry" />
        </mxCell>
        <mxCell id="Q0wwJDRSxAOTeiTxXNb1-38" value="makes" style="shape=rhombus;perimeter=rhombusPerimeter;whiteSpace=wrap;html=1;align=center;" vertex="1" parent="1">
          <mxGeometry x="-385" y="-110" width="120" height="60" as="geometry" />
        </mxCell>
        <mxCell id="Q0wwJDRSxAOTeiTxXNb1-39" value="id" style="ellipse;whiteSpace=wrap;html=1;align=center;fontStyle=4;" vertex="1" parent="1">
          <mxGeometry x="-500" y="-320" width="100" height="40" as="geometry" />
        </mxCell>
        <mxCell id="Q0wwJDRSxAOTeiTxXNb1-40" value="date" style="ellipse;whiteSpace=wrap;html=1;align=center;dashed=1;" vertex="1" parent="1">
          <mxGeometry x="-520" y="-210" width="100" height="40" as="geometry" />
        </mxCell>
        <mxCell id="Q0wwJDRSxAOTeiTxXNb1-41" value="cust_id" style="ellipse;whiteSpace=wrap;html=1;align=center;" vertex="1" parent="1">
          <mxGeometry x="-550" y="-260" width="100" height="40" as="geometry" />
        </mxCell>
        <mxCell id="Q0wwJDRSxAOTeiTxXNb1-42" value="order" style="shape=rhombus;perimeter=rhombusPerimeter;whiteSpace=wrap;html=1;align=center;rotation=0;" vertex="1" parent="1">
          <mxGeometry x="-150" y="20" width="120" height="60" as="geometry" />
        </mxCell>
        <mxCell id="Q0wwJDRSxAOTeiTxXNb1-43" value="order_num" style="ellipse;whiteSpace=wrap;html=1;align=center;fontStyle=4;" vertex="1" parent="1">
          <mxGeometry x="110" y="440" width="100" height="40" as="geometry" />
        </mxCell>
        <mxCell id="Q0wwJDRSxAOTeiTxXNb1-44" value="del_date" style="ellipse;whiteSpace=wrap;html=1;align=center;dashed=1;" vertex="1" parent="1">
          <mxGeometry x="200" y="400" width="100" height="40" as="geometry" />
        </mxCell>
        <mxCell id="Q0wwJDRSxAOTeiTxXNb1-45" value="cus_id" style="ellipse;whiteSpace=wrap;html=1;align=center;" vertex="1" parent="1">
          <mxGeometry x="5" y="400" width="100" height="40" as="geometry" />
        </mxCell>
        <mxCell id="Q0wwJDRSxAOTeiTxXNb1-46" value="name" style="ellipse;whiteSpace=wrap;html=1;align=center;fontStyle=4;" vertex="1" parent="1">
          <mxGeometry x="-390" y="140" width="100" height="40" as="geometry" />
        </mxCell>
        <mxCell id="Q0wwJDRSxAOTeiTxXNb1-47" value="stock" style="ellipse;whiteSpace=wrap;html=1;align=center;" vertex="1" parent="1">
          <mxGeometry x="-335" y="90" width="100" height="40" as="geometry" />
        </mxCell>
        <mxCell id="Q0wwJDRSxAOTeiTxXNb1-48" value="profit" style="ellipse;whiteSpace=wrap;html=1;align=center;" vertex="1" parent="1">
          <mxGeometry x="-310" y="30" width="100" height="40" as="geometry" />
        </mxCell>
        <mxCell id="Q0wwJDRSxAOTeiTxXNb1-49" value="s_price" style="ellipse;whiteSpace=wrap;html=1;align=center;" vertex="1" parent="1">
          <mxGeometry x="-305" y="-45" width="100" height="40" as="geometry" />
        </mxCell>
        <mxCell id="Q0wwJDRSxAOTeiTxXNb1-50" value="flavor" style="ellipse;whiteSpace=wrap;html=1;align=center;" vertex="1" parent="1">
          <mxGeometry x="-290" y="300" width="100" height="40" as="geometry" />
        </mxCell>
        <mxCell id="Q0wwJDRSxAOTeiTxXNb1-51" value="man_info" style="ellipse;whiteSpace=wrap;html=1;align=center;" vertex="1" parent="1">
          <mxGeometry x="-330" y="250" width="100" height="40" as="geometry" />
        </mxCell>
        <mxCell id="Q0wwJDRSxAOTeiTxXNb1-52" value="c_price" style="ellipse;whiteSpace=wrap;html=1;align=center;" vertex="1" parent="1">
          <mxGeometry x="-365" y="200" width="100" height="40" as="geometry" />
        </mxCell>
        <mxCell id="Q0wwJDRSxAOTeiTxXNb1-54" value="manage" style="shape=rhombus;perimeter=rhombusPerimeter;whiteSpace=wrap;html=1;align=center;" vertex="1" parent="1">
          <mxGeometry x="630" y="150" width="120" height="60" as="geometry" />
        </mxCell>
        <mxCell id="Q0wwJDRSxAOTeiTxXNb1-56" value="Attribute" style="ellipse;shape=doubleEllipse;margin=3;whiteSpace=wrap;html=1;align=center;" vertex="1" parent="1">
          <mxGeometry x="1265" y="160" width="100" height="40" as="geometry" />
        </mxCell>
        <mxCell id="Q0wwJDRSxAOTeiTxXNb1-57" value="Attribute" style="ellipse;whiteSpace=wrap;html=1;align=center;" vertex="1" parent="1">
          <mxGeometry x="1030" y="50" width="100" height="40" as="geometry" />
        </mxCell>
        <mxCell id="Q0wwJDRSxAOTeiTxXNb1-58" value="Attribute" style="ellipse;whiteSpace=wrap;html=1;align=center;" vertex="1" parent="1">
          <mxGeometry x="1230" y="100" width="100" height="40" as="geometry" />
        </mxCell>
        <mxCell id="Q0wwJDRSxAOTeiTxXNb1-59" value="Attribute" style="ellipse;whiteSpace=wrap;html=1;align=center;" vertex="1" parent="1">
          <mxGeometry x="1225" y="210" width="100" height="40" as="geometry" />
        </mxCell>
        <mxCell id="Q0wwJDRSxAOTeiTxXNb1-60" value="Attribute" style="ellipse;whiteSpace=wrap;html=1;align=center;" vertex="1" parent="1">
          <mxGeometry x="1020" y="250" width="100" height="40" as="geometry" />
        </mxCell>
        <mxCell id="Q0wwJDRSxAOTeiTxXNb1-61" value="Attribute" style="ellipse;whiteSpace=wrap;html=1;align=center;" vertex="1" parent="1">
          <mxGeometry x="1130" y="250" width="100" height="40" as="geometry" />
        </mxCell>
        <mxCell id="Q0wwJDRSxAOTeiTxXNb1-62" value="Attribute" style="ellipse;whiteSpace=wrap;html=1;align=center;" vertex="1" parent="1">
          <mxGeometry x="1150" y="60" width="100" height="40" as="geometry" />
        </mxCell>
        <mxCell id="Q0wwJDRSxAOTeiTxXNb1-63" value="works in" style="shape=rhombus;perimeter=rhombusPerimeter;whiteSpace=wrap;html=1;align=center;" vertex="1" parent="1">
          <mxGeometry x="860" y="-20" width="120" height="60" as="geometry" />
        </mxCell>
        <mxCell id="Q0wwJDRSxAOTeiTxXNb1-65" value="open_date" style="ellipse;whiteSpace=wrap;html=1;align=center;dashed=1;" vertex="1" parent="1">
          <mxGeometry x="970" y="-520" width="100" height="40" as="geometry" />
        </mxCell>
        <mxCell id="Q0wwJDRSxAOTeiTxXNb1-66" value="location" style="ellipse;whiteSpace=wrap;html=1;align=center;" vertex="1" parent="1">
          <mxGeometry x="790" y="-520" width="100" height="40" as="geometry" />
        </mxCell>
        <mxCell id="Q0wwJDRSxAOTeiTxXNb1-67" value="branch_num" style="ellipse;whiteSpace=wrap;html=1;align=center;fontStyle=4;" vertex="1" parent="1">
          <mxGeometry x="1000" y="-460" width="100" height="40" as="geometry" />
        </mxCell>
        <mxCell id="Q0wwJDRSxAOTeiTxXNb1-68" value="license_num" style="ellipse;whiteSpace=wrap;html=1;align=center;" vertex="1" parent="1">
          <mxGeometry x="870" y="-560" width="100" height="40" as="geometry" />
        </mxCell>
        <mxCell id="Q0wwJDRSxAOTeiTxXNb1-69" value="owned by" style="shape=rhombus;perimeter=rhombusPerimeter;whiteSpace=wrap;html=1;align=center;" vertex="1" parent="1">
          <mxGeometry x="1110" y="300" width="120" height="60" as="geometry" />
        </mxCell>
        <mxCell id="Q0wwJDRSxAOTeiTxXNb1-70" value="name" style="ellipse;whiteSpace=wrap;html=1;align=center;" vertex="1" parent="1">
          <mxGeometry x="1205" y="-90" width="100" height="40" as="geometry" />
        </mxCell>
        <mxCell id="Q0wwJDRSxAOTeiTxXNb1-71" value="phone_num" style="ellipse;shape=doubleEllipse;margin=3;whiteSpace=wrap;html=1;align=center;" vertex="1" parent="1">
          <mxGeometry x="1100" y="-5" width="100" height="40" as="geometry" />
        </mxCell>
        <mxCell id="Q0wwJDRSxAOTeiTxXNb1-72" value="email" style="ellipse;whiteSpace=wrap;html=1;align=center;" vertex="1" parent="1">
          <mxGeometry x="1200" y="-40" width="100" height="40" as="geometry" />
        </mxCell>
        <mxCell id="Q0wwJDRSxAOTeiTxXNb1-74" value="n_id" style="ellipse;whiteSpace=wrap;html=1;align=center;fontStyle=4;" vertex="1" parent="1">
          <mxGeometry x="1020" y="-50" width="100" height="40" as="geometry" />
        </mxCell>
        <mxCell id="Q0wwJDRSxAOTeiTxXNb1-78" value="account_id" style="ellipse;whiteSpace=wrap;html=1;align=center;fontStyle=4;" vertex="1" parent="1">
          <mxGeometry x="140" y="-690" width="100" height="40" as="geometry" />
        </mxCell>
        <mxCell id="Q0wwJDRSxAOTeiTxXNb1-79" value="daily_profit" style="ellipse;whiteSpace=wrap;html=1;align=center;" vertex="1" parent="1">
          <mxGeometry x="-10" y="-680" width="100" height="40" as="geometry" />
        </mxCell>
        <mxCell id="Q0wwJDRSxAOTeiTxXNb1-80" value="net_profit" style="ellipse;whiteSpace=wrap;html=1;align=center;" vertex="1" parent="1">
          <mxGeometry x="-30" y="-600" width="100" height="40" as="geometry" />
        </mxCell>
        <mxCell id="Q0wwJDRSxAOTeiTxXNb1-81" value="branch_num" style="ellipse;whiteSpace=wrap;html=1;align=center;" vertex="1" parent="1">
          <mxGeometry x="210" y="-650" width="90" height="30" as="geometry" />
        </mxCell>
        <mxCell id="Q0wwJDRSxAOTeiTxXNb1-82" value="balance" style="ellipse;whiteSpace=wrap;html=1;align=center;" vertex="1" parent="1">
          <mxGeometry x="70" y="-730" width="100" height="40" as="geometry" />
        </mxCell>
        <mxCell id="Q0wwJDRSxAOTeiTxXNb1-83" value="open_date" style="ellipse;whiteSpace=wrap;html=1;align=center;dashed=1;" vertex="1" parent="1">
          <mxGeometry x="260" y="-260" width="100" height="40" as="geometry" />
        </mxCell>
        <mxCell id="Q0wwJDRSxAOTeiTxXNb1-84" value="location" style="ellipse;whiteSpace=wrap;html=1;align=center;" vertex="1" parent="1">
          <mxGeometry x="330" y="-180" width="100" height="40" as="geometry" />
        </mxCell>
        <mxCell id="Q0wwJDRSxAOTeiTxXNb1-85" value="com_license" style="ellipse;whiteSpace=wrap;html=1;align=center;fontStyle=4;" vertex="1" parent="1">
          <mxGeometry x="430" y="-220" width="100" height="40" as="geometry" />
        </mxCell>
        <mxCell id="Q0wwJDRSxAOTeiTxXNb1-86" value="" style="endArrow=none;html=1;rounded=0;exitX=0.5;exitY=0;exitDx=0;exitDy=0;entryX=1;entryY=1;entryDx=0;entryDy=0;" edge="1" parent="1" source="Q0wwJDRSxAOTeiTxXNb1-3" target="Q0wwJDRSxAOTeiTxXNb1-32">
          <mxGeometry relative="1" as="geometry">
            <mxPoint x="690" y="-20" as="sourcePoint" />
            <mxPoint x="850" y="-20" as="targetPoint" />
          </mxGeometry>
        </mxCell>
        <mxCell id="Q0wwJDRSxAOTeiTxXNb1-87" value="" style="endArrow=classic;html=1;rounded=0;exitX=1;exitY=0.5;exitDx=0;exitDy=0;entryX=0;entryY=0.5;entryDx=0;entryDy=0;" edge="1" parent="1" source="Q0wwJDRSxAOTeiTxXNb1-221" target="Q0wwJDRSxAOTeiTxXNb1-9">
          <mxGeometry width="50" height="50" relative="1" as="geometry">
            <mxPoint x="-150" y="-470" as="sourcePoint" />
            <mxPoint x="-100" y="-520" as="targetPoint" />
          </mxGeometry>
        </mxCell>
        <mxCell id="Q0wwJDRSxAOTeiTxXNb1-88" value="" style="endArrow=none;html=1;rounded=0;exitX=1;exitY=0.5;exitDx=0;exitDy=0;entryX=0.5;entryY=0;entryDx=0;entryDy=0;" edge="1" parent="1" source="Q0wwJDRSxAOTeiTxXNb1-12" target="Q0wwJDRSxAOTeiTxXNb1-1">
          <mxGeometry relative="1" as="geometry">
            <mxPoint x="-130" y="-141" as="sourcePoint" />
            <mxPoint x="30" y="-141" as="targetPoint" />
          </mxGeometry>
        </mxCell>
        <mxCell id="Q0wwJDRSxAOTeiTxXNb1-89" value="" style="endArrow=none;html=1;rounded=0;exitX=1;exitY=1;exitDx=0;exitDy=0;entryX=0.5;entryY=0;entryDx=0;entryDy=0;" edge="1" parent="1" source="Q0wwJDRSxAOTeiTxXNb1-13" target="Q0wwJDRSxAOTeiTxXNb1-1">
          <mxGeometry relative="1" as="geometry">
            <mxPoint x="-140" y="-160" as="sourcePoint" />
            <mxPoint x="-50" y="-100" as="targetPoint" />
          </mxGeometry>
        </mxCell>
        <mxCell id="Q0wwJDRSxAOTeiTxXNb1-91" value="" style="endArrow=none;html=1;rounded=0;entryX=0;entryY=0.5;entryDx=0;entryDy=0;exitX=0.5;exitY=0;exitDx=0;exitDy=0;" edge="1" parent="1" source="Q0wwJDRSxAOTeiTxXNb1-1" target="Q0wwJDRSxAOTeiTxXNb1-16">
          <mxGeometry relative="1" as="geometry">
            <mxPoint x="-50" y="-100" as="sourcePoint" />
            <mxPoint x="40" y="-121" as="targetPoint" />
          </mxGeometry>
        </mxCell>
        <mxCell id="Q0wwJDRSxAOTeiTxXNb1-92" value="" style="endArrow=none;html=1;rounded=0;exitX=0.5;exitY=1;exitDx=0;exitDy=0;entryX=0.5;entryY=0;entryDx=0;entryDy=0;" edge="1" parent="1" source="Q0wwJDRSxAOTeiTxXNb1-14" target="Q0wwJDRSxAOTeiTxXNb1-1">
          <mxGeometry relative="1" as="geometry">
            <mxPoint x="-135" y="-121" as="sourcePoint" />
            <mxPoint x="25" y="-121" as="targetPoint" />
          </mxGeometry>
        </mxCell>
        <mxCell id="Q0wwJDRSxAOTeiTxXNb1-93" value="" style="endArrow=none;html=1;rounded=0;exitX=0;exitY=1;exitDx=0;exitDy=0;entryX=0.5;entryY=0;entryDx=0;entryDy=0;" edge="1" parent="1" source="Q0wwJDRSxAOTeiTxXNb1-15" target="Q0wwJDRSxAOTeiTxXNb1-1">
          <mxGeometry relative="1" as="geometry">
            <mxPoint x="80" y="-241" as="sourcePoint" />
            <mxPoint x="-80" y="-80" as="targetPoint" />
          </mxGeometry>
        </mxCell>
        <mxCell id="Q0wwJDRSxAOTeiTxXNb1-94" value="" style="endArrow=classic;html=1;rounded=0;entryX=0;entryY=0.5;entryDx=0;entryDy=0;exitX=1;exitY=0.5;exitDx=0;exitDy=0;" edge="1" parent="1" source="Q0wwJDRSxAOTeiTxXNb1-17" target="Q0wwJDRSxAOTeiTxXNb1-2">
          <mxGeometry width="50" height="50" relative="1" as="geometry">
            <mxPoint x="140" y="-60" as="sourcePoint" />
            <mxPoint x="190" y="-110" as="targetPoint" />
          </mxGeometry>
        </mxCell>
        <mxCell id="Q0wwJDRSxAOTeiTxXNb1-95" value="" style="endArrow=classic;html=1;rounded=0;exitX=0;exitY=0.5;exitDx=0;exitDy=0;entryX=1;entryY=0.5;entryDx=0;entryDy=0;" edge="1" parent="1" source="Q0wwJDRSxAOTeiTxXNb1-115" target="Q0wwJDRSxAOTeiTxXNb1-10">
          <mxGeometry width="50" height="50" relative="1" as="geometry">
            <mxPoint x="-490" y="380" as="sourcePoint" />
            <mxPoint x="-620" y="380" as="targetPoint" />
          </mxGeometry>
        </mxCell>
        <mxCell id="Q0wwJDRSxAOTeiTxXNb1-96" value="" style="endArrow=none;html=1;rounded=0;entryX=0;entryY=0.5;entryDx=0;entryDy=0;exitX=1;exitY=0.5;exitDx=0;exitDy=0;" edge="1" parent="1" source="Q0wwJDRSxAOTeiTxXNb1-1" target="Q0wwJDRSxAOTeiTxXNb1-17">
          <mxGeometry relative="1" as="geometry">
            <mxPoint x="-30" y="-60" as="sourcePoint" />
            <mxPoint x="130" y="-60" as="targetPoint" />
          </mxGeometry>
        </mxCell>
        <mxCell id="Q0wwJDRSxAOTeiTxXNb1-97" value="" style="endArrow=none;html=1;rounded=0;entryX=0.5;entryY=0;entryDx=0;entryDy=0;" edge="1" parent="1" target="Q0wwJDRSxAOTeiTxXNb1-19">
          <mxGeometry relative="1" as="geometry">
            <mxPoint x="220" y="-60" as="sourcePoint" />
            <mxPoint x="350" y="-150.5" as="targetPoint" />
          </mxGeometry>
        </mxCell>
        <mxCell id="Q0wwJDRSxAOTeiTxXNb1-98" value="" style="endArrow=none;html=1;rounded=0;exitX=1;exitY=0.5;exitDx=0;exitDy=0;entryX=0.5;entryY=1;entryDx=0;entryDy=0;" edge="1" parent="1" source="Q0wwJDRSxAOTeiTxXNb1-20" target="Q0wwJDRSxAOTeiTxXNb1-2">
          <mxGeometry relative="1" as="geometry">
            <mxPoint x="140" y="-120" as="sourcePoint" />
            <mxPoint x="300" y="-120" as="targetPoint" />
          </mxGeometry>
        </mxCell>
        <mxCell id="Q0wwJDRSxAOTeiTxXNb1-99" value="" style="endArrow=classic;html=1;rounded=0;entryX=0;entryY=0.5;entryDx=0;entryDy=0;" edge="1" parent="1" source="Q0wwJDRSxAOTeiTxXNb1-38" target="Q0wwJDRSxAOTeiTxXNb1-1">
          <mxGeometry width="50" height="50" relative="1" as="geometry">
            <mxPoint x="-265" y="-20" as="sourcePoint" />
            <mxPoint x="-215" y="-70" as="targetPoint" />
          </mxGeometry>
        </mxCell>
        <mxCell id="Q0wwJDRSxAOTeiTxXNb1-100" value="" style="endArrow=none;html=1;rounded=0;exitX=0.5;exitY=0;exitDx=0;exitDy=0;" edge="1" parent="1" source="Q0wwJDRSxAOTeiTxXNb1-38" target="Q0wwJDRSxAOTeiTxXNb1-11">
          <mxGeometry relative="1" as="geometry">
            <mxPoint x="-370" y="-110" as="sourcePoint" />
            <mxPoint x="-310" y="30" as="targetPoint" />
          </mxGeometry>
        </mxCell>
        <mxCell id="Q0wwJDRSxAOTeiTxXNb1-101" value="" style="endArrow=none;html=1;rounded=0;exitX=0.5;exitY=1;exitDx=0;exitDy=0;entryX=0;entryY=0.5;entryDx=0;entryDy=0;" edge="1" parent="1" source="Q0wwJDRSxAOTeiTxXNb1-39" target="Q0wwJDRSxAOTeiTxXNb1-11">
          <mxGeometry relative="1" as="geometry">
            <mxPoint x="-310" y="-10.5" as="sourcePoint" />
            <mxPoint x="-150" y="-10.5" as="targetPoint" />
          </mxGeometry>
        </mxCell>
        <mxCell id="Q0wwJDRSxAOTeiTxXNb1-103" value="" style="endArrow=none;html=1;rounded=0;exitX=1;exitY=0.5;exitDx=0;exitDy=0;entryX=0;entryY=0.5;entryDx=0;entryDy=0;" edge="1" parent="1" source="Q0wwJDRSxAOTeiTxXNb1-41" target="Q0wwJDRSxAOTeiTxXNb1-11">
          <mxGeometry relative="1" as="geometry">
            <mxPoint x="-401.5" y="120" as="sourcePoint" />
            <mxPoint x="-338.5" y="167" as="targetPoint" />
          </mxGeometry>
        </mxCell>
        <mxCell id="Q0wwJDRSxAOTeiTxXNb1-105" value="" style="endArrow=none;html=1;rounded=0;entryX=0;entryY=0.5;entryDx=0;entryDy=0;" edge="1" parent="1" source="Q0wwJDRSxAOTeiTxXNb1-40" target="Q0wwJDRSxAOTeiTxXNb1-11">
          <mxGeometry relative="1" as="geometry">
            <mxPoint x="-320" y="100" as="sourcePoint" />
            <mxPoint x="-257" y="147" as="targetPoint" />
          </mxGeometry>
        </mxCell>
        <mxCell id="Q0wwJDRSxAOTeiTxXNb1-106" value="" style="endArrow=classic;html=1;rounded=0;entryX=0.5;entryY=0;entryDx=0;entryDy=0;exitX=0.5;exitY=1;exitDx=0;exitDy=0;" edge="1" parent="1" source="Q0wwJDRSxAOTeiTxXNb1-42" target="Q0wwJDRSxAOTeiTxXNb1-4">
          <mxGeometry width="50" height="50" relative="1" as="geometry">
            <mxPoint x="-630" y="290" as="sourcePoint" />
            <mxPoint x="-630" y="200" as="targetPoint" />
          </mxGeometry>
        </mxCell>
        <mxCell id="Q0wwJDRSxAOTeiTxXNb1-107" value="" style="endArrow=none;html=1;rounded=0;entryX=0.5;entryY=1;entryDx=0;entryDy=0;exitX=0.5;exitY=0;exitDx=0;exitDy=0;" edge="1" parent="1" source="Q0wwJDRSxAOTeiTxXNb1-43" target="Q0wwJDRSxAOTeiTxXNb1-10">
          <mxGeometry relative="1" as="geometry">
            <mxPoint x="-265" y="440" as="sourcePoint" />
            <mxPoint x="-202" y="487" as="targetPoint" />
          </mxGeometry>
        </mxCell>
        <mxCell id="Q0wwJDRSxAOTeiTxXNb1-108" value="" style="endArrow=none;html=1;rounded=0;exitX=0;exitY=0;exitDx=0;exitDy=0;entryX=0.5;entryY=1;entryDx=0;entryDy=0;" edge="1" parent="1" source="Q0wwJDRSxAOTeiTxXNb1-44" target="Q0wwJDRSxAOTeiTxXNb1-10">
          <mxGeometry relative="1" as="geometry">
            <mxPoint x="-265" y="480" as="sourcePoint" />
            <mxPoint x="-202" y="527" as="targetPoint" />
          </mxGeometry>
        </mxCell>
        <mxCell id="Q0wwJDRSxAOTeiTxXNb1-109" value="" style="endArrow=none;html=1;rounded=0;exitX=0.97;exitY=0.3;exitDx=0;exitDy=0;exitPerimeter=0;entryX=0.5;entryY=1;entryDx=0;entryDy=0;" edge="1" parent="1" source="Q0wwJDRSxAOTeiTxXNb1-45" target="Q0wwJDRSxAOTeiTxXNb1-10">
          <mxGeometry relative="1" as="geometry">
            <mxPoint x="-233" y="540" as="sourcePoint" />
            <mxPoint x="-170" y="587" as="targetPoint" />
          </mxGeometry>
        </mxCell>
        <mxCell id="Q0wwJDRSxAOTeiTxXNb1-110" value="" style="endArrow=none;html=1;rounded=0;exitX=0.5;exitY=1;exitDx=0;exitDy=0;entryX=0.5;entryY=0;entryDx=0;entryDy=0;" edge="1" parent="1" source="Q0wwJDRSxAOTeiTxXNb1-4" target="Q0wwJDRSxAOTeiTxXNb1-215">
          <mxGeometry relative="1" as="geometry">
            <mxPoint x="-165" y="520" as="sourcePoint" />
            <mxPoint x="-110" y="310" as="targetPoint" />
          </mxGeometry>
        </mxCell>
        <mxCell id="Q0wwJDRSxAOTeiTxXNb1-115" value="confirm by&amp;nbsp;" style="shape=rhombus;perimeter=rhombusPerimeter;whiteSpace=wrap;html=1;align=center;" vertex="1" parent="1">
          <mxGeometry x="270" y="290" width="120" height="60" as="geometry" />
        </mxCell>
        <mxCell id="Q0wwJDRSxAOTeiTxXNb1-123" value="" style="endArrow=none;html=1;rounded=0;exitX=1;exitY=0.5;exitDx=0;exitDy=0;entryX=0.5;entryY=0;entryDx=0;entryDy=0;" edge="1" parent="1" source="Q0wwJDRSxAOTeiTxXNb1-29" target="Q0wwJDRSxAOTeiTxXNb1-3">
          <mxGeometry relative="1" as="geometry">
            <mxPoint x="350" y="100" as="sourcePoint" />
            <mxPoint x="510" y="100" as="targetPoint" />
          </mxGeometry>
        </mxCell>
        <mxCell id="Q0wwJDRSxAOTeiTxXNb1-124" value="" style="endArrow=none;html=1;rounded=0;exitX=1;exitY=0.5;exitDx=0;exitDy=0;entryX=0.5;entryY=0;entryDx=0;entryDy=0;" edge="1" parent="1" source="Q0wwJDRSxAOTeiTxXNb1-27" target="Q0wwJDRSxAOTeiTxXNb1-3">
          <mxGeometry relative="1" as="geometry">
            <mxPoint x="440" y="40" as="sourcePoint" />
            <mxPoint x="600" y="40" as="targetPoint" />
          </mxGeometry>
        </mxCell>
        <mxCell id="Q0wwJDRSxAOTeiTxXNb1-125" value="" style="endArrow=none;html=1;rounded=0;entryX=0.5;entryY=0;entryDx=0;entryDy=0;exitX=1;exitY=0.5;exitDx=0;exitDy=0;" edge="1" parent="1" source="Q0wwJDRSxAOTeiTxXNb1-28" target="Q0wwJDRSxAOTeiTxXNb1-3">
          <mxGeometry relative="1" as="geometry">
            <mxPoint x="320" y="120" as="sourcePoint" />
            <mxPoint x="360" y="59" as="targetPoint" />
          </mxGeometry>
        </mxCell>
        <mxCell id="Q0wwJDRSxAOTeiTxXNb1-126" value="" style="endArrow=none;html=1;rounded=0;exitX=1;exitY=0.5;exitDx=0;exitDy=0;entryX=0.5;entryY=0;entryDx=0;entryDy=0;" edge="1" parent="1" source="Q0wwJDRSxAOTeiTxXNb1-31" target="Q0wwJDRSxAOTeiTxXNb1-3">
          <mxGeometry relative="1" as="geometry">
            <mxPoint x="450" y="-1" as="sourcePoint" />
            <mxPoint x="610" y="-1" as="targetPoint" />
          </mxGeometry>
        </mxCell>
        <mxCell id="Q0wwJDRSxAOTeiTxXNb1-127" value="" style="endArrow=none;html=1;rounded=0;exitX=0.7;exitY=1.025;exitDx=0;exitDy=0;entryX=0.5;entryY=0;entryDx=0;entryDy=0;exitPerimeter=0;" edge="1" parent="1" source="Q0wwJDRSxAOTeiTxXNb1-22" target="Q0wwJDRSxAOTeiTxXNb1-3">
          <mxGeometry relative="1" as="geometry">
            <mxPoint x="510" y="-40" as="sourcePoint" />
            <mxPoint x="670" y="-40" as="targetPoint" />
          </mxGeometry>
        </mxCell>
        <mxCell id="Q0wwJDRSxAOTeiTxXNb1-128" value="" style="endArrow=none;html=1;rounded=0;exitX=0.5;exitY=0;exitDx=0;exitDy=0;entryX=0;entryY=0.5;entryDx=0;entryDy=0;" edge="1" parent="1" source="Q0wwJDRSxAOTeiTxXNb1-3" target="Q0wwJDRSxAOTeiTxXNb1-33">
          <mxGeometry relative="1" as="geometry">
            <mxPoint x="419.64" y="200" as="sourcePoint" />
            <mxPoint x="519.64" y="-76" as="targetPoint" />
          </mxGeometry>
        </mxCell>
        <mxCell id="Q0wwJDRSxAOTeiTxXNb1-129" value="" style="endArrow=none;html=1;rounded=0;exitX=0.5;exitY=0;exitDx=0;exitDy=0;entryX=0;entryY=0.5;entryDx=0;entryDy=0;" edge="1" parent="1" source="Q0wwJDRSxAOTeiTxXNb1-3" target="Q0wwJDRSxAOTeiTxXNb1-34">
          <mxGeometry relative="1" as="geometry">
            <mxPoint x="420" y="248" as="sourcePoint" />
            <mxPoint x="520" y="-28" as="targetPoint" />
          </mxGeometry>
        </mxCell>
        <mxCell id="Q0wwJDRSxAOTeiTxXNb1-130" value="" style="endArrow=none;html=1;rounded=0;exitX=0.5;exitY=0;exitDx=0;exitDy=0;entryX=0;entryY=0.5;entryDx=0;entryDy=0;" edge="1" parent="1" source="Q0wwJDRSxAOTeiTxXNb1-3" target="Q0wwJDRSxAOTeiTxXNb1-24">
          <mxGeometry relative="1" as="geometry">
            <mxPoint x="430" y="296" as="sourcePoint" />
            <mxPoint x="530" y="20" as="targetPoint" />
          </mxGeometry>
        </mxCell>
        <mxCell id="Q0wwJDRSxAOTeiTxXNb1-131" value="" style="endArrow=none;html=1;rounded=0;entryX=0.5;entryY=1;entryDx=0;entryDy=0;exitX=0.5;exitY=0;exitDx=0;exitDy=0;" edge="1" parent="1" source="Q0wwJDRSxAOTeiTxXNb1-42" target="Q0wwJDRSxAOTeiTxXNb1-1">
          <mxGeometry relative="1" as="geometry">
            <mxPoint x="-780" y="339.40999999999997" as="sourcePoint" />
            <mxPoint x="-635" y="339.40999999999997" as="targetPoint" />
          </mxGeometry>
        </mxCell>
        <mxCell id="Q0wwJDRSxAOTeiTxXNb1-132" value="" style="endArrow=none;html=1;rounded=0;entryX=0.5;entryY=1;entryDx=0;entryDy=0;exitX=0.5;exitY=0;exitDx=0;exitDy=0;" edge="1" parent="1" source="Q0wwJDRSxAOTeiTxXNb1-7" target="Q0wwJDRSxAOTeiTxXNb1-68">
          <mxGeometry relative="1" as="geometry">
            <mxPoint x="910" y="-350" as="sourcePoint" />
            <mxPoint x="1025" y="-400" as="targetPoint" />
          </mxGeometry>
        </mxCell>
        <mxCell id="Q0wwJDRSxAOTeiTxXNb1-134" value="" style="endArrow=none;html=1;rounded=0;entryX=1;entryY=0.5;entryDx=0;entryDy=0;exitX=0;exitY=0.5;exitDx=0;exitDy=0;" edge="1" parent="1" source="Q0wwJDRSxAOTeiTxXNb1-54" target="Q0wwJDRSxAOTeiTxXNb1-3">
          <mxGeometry relative="1" as="geometry">
            <mxPoint x="600" y="230" as="sourcePoint" />
            <mxPoint x="745" y="230" as="targetPoint" />
          </mxGeometry>
        </mxCell>
        <mxCell id="Q0wwJDRSxAOTeiTxXNb1-135" value="" style="endArrow=classic;html=1;rounded=0;entryX=0.5;entryY=0;entryDx=0;entryDy=0;exitX=0.5;exitY=1;exitDx=0;exitDy=0;" edge="1" parent="1">
          <mxGeometry width="50" height="50" relative="1" as="geometry">
            <mxPoint x="919.29" y="40" as="sourcePoint" />
            <mxPoint x="919.29" y="160" as="targetPoint" />
          </mxGeometry>
        </mxCell>
        <mxCell id="Q0wwJDRSxAOTeiTxXNb1-136" value="" style="endArrow=classic;html=1;rounded=0;exitX=1;exitY=0.5;exitDx=0;exitDy=0;entryX=0;entryY=0.5;entryDx=0;entryDy=0;" edge="1" parent="1" source="Q0wwJDRSxAOTeiTxXNb1-54" target="Q0wwJDRSxAOTeiTxXNb1-5">
          <mxGeometry width="50" height="50" relative="1" as="geometry">
            <mxPoint x="545" y="360" as="sourcePoint" />
            <mxPoint x="595" y="310" as="targetPoint" />
          </mxGeometry>
        </mxCell>
        <mxCell id="Q0wwJDRSxAOTeiTxXNb1-146" value="" style="endArrow=none;html=1;rounded=0;entryX=0;entryY=0.5;entryDx=0;entryDy=0;exitX=1;exitY=0.5;exitDx=0;exitDy=0;" edge="1" parent="1" source="Q0wwJDRSxAOTeiTxXNb1-5" target="Q0wwJDRSxAOTeiTxXNb1-56">
          <mxGeometry relative="1" as="geometry">
            <mxPoint x="1000" y="160" as="sourcePoint" />
            <mxPoint x="1110" y="180" as="targetPoint" />
          </mxGeometry>
        </mxCell>
        <mxCell id="Q0wwJDRSxAOTeiTxXNb1-147" value="" style="endArrow=none;html=1;rounded=0;entryX=0.5;entryY=0;entryDx=0;entryDy=0;exitX=1;exitY=0.5;exitDx=0;exitDy=0;" edge="1" parent="1" source="Q0wwJDRSxAOTeiTxXNb1-5" target="Q0wwJDRSxAOTeiTxXNb1-60">
          <mxGeometry relative="1" as="geometry">
            <mxPoint x="970" y="180" as="sourcePoint" />
            <mxPoint x="870" y="350" as="targetPoint" />
          </mxGeometry>
        </mxCell>
        <mxCell id="Q0wwJDRSxAOTeiTxXNb1-148" value="" style="endArrow=none;html=1;rounded=0;entryX=0.5;entryY=0;entryDx=0;entryDy=0;exitX=1;exitY=0.5;exitDx=0;exitDy=0;" edge="1" parent="1" source="Q0wwJDRSxAOTeiTxXNb1-5" target="Q0wwJDRSxAOTeiTxXNb1-61">
          <mxGeometry relative="1" as="geometry">
            <mxPoint x="725" y="388" as="sourcePoint" />
            <mxPoint x="870" y="388" as="targetPoint" />
          </mxGeometry>
        </mxCell>
        <mxCell id="Q0wwJDRSxAOTeiTxXNb1-149" value="" style="endArrow=none;html=1;rounded=0;entryX=0;entryY=0.5;entryDx=0;entryDy=0;exitX=1;exitY=0.5;exitDx=0;exitDy=0;" edge="1" parent="1" source="Q0wwJDRSxAOTeiTxXNb1-5" target="Q0wwJDRSxAOTeiTxXNb1-59">
          <mxGeometry relative="1" as="geometry">
            <mxPoint x="725" y="430" as="sourcePoint" />
            <mxPoint x="870" y="430" as="targetPoint" />
          </mxGeometry>
        </mxCell>
        <mxCell id="Q0wwJDRSxAOTeiTxXNb1-150" value="" style="endArrow=none;html=1;rounded=0;entryX=0;entryY=0.5;entryDx=0;entryDy=0;exitX=1;exitY=0.5;exitDx=0;exitDy=0;" edge="1" parent="1" source="Q0wwJDRSxAOTeiTxXNb1-5" target="Q0wwJDRSxAOTeiTxXNb1-58">
          <mxGeometry relative="1" as="geometry">
            <mxPoint x="725" y="460" as="sourcePoint" />
            <mxPoint x="870" y="460" as="targetPoint" />
          </mxGeometry>
        </mxCell>
        <mxCell id="Q0wwJDRSxAOTeiTxXNb1-151" value="" style="endArrow=none;html=1;rounded=0;entryX=0;entryY=0.5;entryDx=0;entryDy=0;exitX=1;exitY=0.5;exitDx=0;exitDy=0;" edge="1" parent="1" source="Q0wwJDRSxAOTeiTxXNb1-5" target="Q0wwJDRSxAOTeiTxXNb1-62">
          <mxGeometry relative="1" as="geometry">
            <mxPoint x="725" y="480" as="sourcePoint" />
            <mxPoint x="870" y="480" as="targetPoint" />
          </mxGeometry>
        </mxCell>
        <mxCell id="Q0wwJDRSxAOTeiTxXNb1-152" value="" style="endArrow=none;html=1;rounded=0;entryX=0.5;entryY=1;entryDx=0;entryDy=0;exitX=1;exitY=0.5;exitDx=0;exitDy=0;" edge="1" parent="1" source="Q0wwJDRSxAOTeiTxXNb1-5" target="Q0wwJDRSxAOTeiTxXNb1-57">
          <mxGeometry relative="1" as="geometry">
            <mxPoint x="725" y="518" as="sourcePoint" />
            <mxPoint x="870" y="518" as="targetPoint" />
          </mxGeometry>
        </mxCell>
        <mxCell id="Q0wwJDRSxAOTeiTxXNb1-154" value="" style="endArrow=none;html=1;rounded=0;entryX=1;entryY=0.5;entryDx=0;entryDy=0;exitX=0;exitY=0.5;exitDx=0;exitDy=0;" edge="1" parent="1" source="Q0wwJDRSxAOTeiTxXNb1-4" target="Q0wwJDRSxAOTeiTxXNb1-46">
          <mxGeometry relative="1" as="geometry">
            <mxPoint x="120" y="448.81999999999994" as="sourcePoint" />
            <mxPoint x="265" y="448.81999999999994" as="targetPoint" />
          </mxGeometry>
        </mxCell>
        <mxCell id="Q0wwJDRSxAOTeiTxXNb1-155" value="" style="endArrow=none;html=1;rounded=0;entryX=0.5;entryY=0;entryDx=0;entryDy=0;exitX=0.5;exitY=1;exitDx=0;exitDy=0;" edge="1" parent="1" source="Q0wwJDRSxAOTeiTxXNb1-6" target="Q0wwJDRSxAOTeiTxXNb1-71">
          <mxGeometry relative="1" as="geometry">
            <mxPoint x="1030" y="-100.00000000000011" as="sourcePoint" />
            <mxPoint x="1175" y="-100.00000000000011" as="targetPoint" />
          </mxGeometry>
        </mxCell>
        <mxCell id="Q0wwJDRSxAOTeiTxXNb1-156" value="" style="endArrow=classic;html=1;rounded=0;entryX=0;entryY=0.5;entryDx=0;entryDy=0;exitX=1;exitY=0.5;exitDx=0;exitDy=0;" edge="1" parent="1" source="Q0wwJDRSxAOTeiTxXNb1-37" target="Q0wwJDRSxAOTeiTxXNb1-3">
          <mxGeometry width="50" height="50" relative="1" as="geometry">
            <mxPoint x="200" y="190" as="sourcePoint" />
            <mxPoint x="230" y="200" as="targetPoint" />
          </mxGeometry>
        </mxCell>
        <mxCell id="Q0wwJDRSxAOTeiTxXNb1-157" value="" style="endArrow=none;html=1;rounded=0;entryX=1;entryY=0.5;entryDx=0;entryDy=0;exitX=0;exitY=0.5;exitDx=0;exitDy=0;" edge="1" parent="1" source="Q0wwJDRSxAOTeiTxXNb1-4" target="Q0wwJDRSxAOTeiTxXNb1-52">
          <mxGeometry relative="1" as="geometry">
            <mxPoint x="120" y="469.9999999999999" as="sourcePoint" />
            <mxPoint x="265" y="469.9999999999999" as="targetPoint" />
          </mxGeometry>
        </mxCell>
        <mxCell id="Q0wwJDRSxAOTeiTxXNb1-158" value="" style="endArrow=none;html=1;rounded=0;entryX=1;entryY=0;entryDx=0;entryDy=0;exitX=0;exitY=0.5;exitDx=0;exitDy=0;" edge="1" parent="1" source="Q0wwJDRSxAOTeiTxXNb1-4" target="Q0wwJDRSxAOTeiTxXNb1-51">
          <mxGeometry relative="1" as="geometry">
            <mxPoint x="120" y="479.9999999999999" as="sourcePoint" />
            <mxPoint x="265" y="479.9999999999999" as="targetPoint" />
          </mxGeometry>
        </mxCell>
        <mxCell id="Q0wwJDRSxAOTeiTxXNb1-159" value="" style="endArrow=none;html=1;rounded=0;entryX=0.613;entryY=-0.012;entryDx=0;entryDy=0;exitX=0;exitY=0.5;exitDx=0;exitDy=0;entryPerimeter=0;" edge="1" parent="1" source="Q0wwJDRSxAOTeiTxXNb1-4" target="Q0wwJDRSxAOTeiTxXNb1-50">
          <mxGeometry relative="1" as="geometry">
            <mxPoint x="-100" y="200" as="sourcePoint" />
            <mxPoint x="270" y="489.9999999999999" as="targetPoint" />
          </mxGeometry>
        </mxCell>
        <mxCell id="Q0wwJDRSxAOTeiTxXNb1-160" value="" style="endArrow=none;html=1;rounded=0;entryX=1;entryY=0.5;entryDx=0;entryDy=0;exitX=0;exitY=0.5;exitDx=0;exitDy=0;" edge="1" parent="1" source="Q0wwJDRSxAOTeiTxXNb1-4" target="Q0wwJDRSxAOTeiTxXNb1-47">
          <mxGeometry relative="1" as="geometry">
            <mxPoint x="125" y="519.9999999999999" as="sourcePoint" />
            <mxPoint x="270" y="519.9999999999999" as="targetPoint" />
          </mxGeometry>
        </mxCell>
        <mxCell id="Q0wwJDRSxAOTeiTxXNb1-161" value="" style="endArrow=none;html=1;rounded=0;entryX=0;entryY=0.5;entryDx=0;entryDy=0;exitX=1;exitY=1;exitDx=0;exitDy=0;" edge="1" parent="1" source="Q0wwJDRSxAOTeiTxXNb1-48" target="Q0wwJDRSxAOTeiTxXNb1-4">
          <mxGeometry relative="1" as="geometry">
            <mxPoint x="125" y="549.9999999999999" as="sourcePoint" />
            <mxPoint x="270" y="549.9999999999999" as="targetPoint" />
          </mxGeometry>
        </mxCell>
        <mxCell id="Q0wwJDRSxAOTeiTxXNb1-162" value="" style="endArrow=none;html=1;rounded=0;entryX=0;entryY=0.5;entryDx=0;entryDy=0;exitX=1;exitY=1;exitDx=0;exitDy=0;" edge="1" parent="1" source="Q0wwJDRSxAOTeiTxXNb1-49" target="Q0wwJDRSxAOTeiTxXNb1-4">
          <mxGeometry relative="1" as="geometry">
            <mxPoint x="125" y="559.4099999999999" as="sourcePoint" />
            <mxPoint x="270" y="559.4099999999999" as="targetPoint" />
          </mxGeometry>
        </mxCell>
        <mxCell id="Q0wwJDRSxAOTeiTxXNb1-165" value="" style="endArrow=none;html=1;rounded=0;entryX=1;entryY=0.5;entryDx=0;entryDy=0;" edge="1" parent="1" source="Q0wwJDRSxAOTeiTxXNb1-37" target="Q0wwJDRSxAOTeiTxXNb1-4">
          <mxGeometry relative="1" as="geometry">
            <mxPoint x="125" y="568.8199999999998" as="sourcePoint" />
            <mxPoint x="270" y="568.8199999999998" as="targetPoint" />
          </mxGeometry>
        </mxCell>
        <mxCell id="Q0wwJDRSxAOTeiTxXNb1-167" value="" style="endArrow=none;html=1;rounded=0;entryX=0.013;entryY=0.739;entryDx=0;entryDy=0;entryPerimeter=0;exitX=0.5;exitY=0;exitDx=0;exitDy=0;" edge="1" parent="1" source="Q0wwJDRSxAOTeiTxXNb1-7" target="Q0wwJDRSxAOTeiTxXNb1-65">
          <mxGeometry relative="1" as="geometry">
            <mxPoint x="930" y="-230" as="sourcePoint" />
            <mxPoint x="1045" y="-280" as="targetPoint" />
          </mxGeometry>
        </mxCell>
        <mxCell id="Q0wwJDRSxAOTeiTxXNb1-168" value="" style="endArrow=none;html=1;rounded=0;entryX=0;entryY=0.5;entryDx=0;entryDy=0;exitX=0.5;exitY=0;exitDx=0;exitDy=0;" edge="1" parent="1" source="Q0wwJDRSxAOTeiTxXNb1-7" target="Q0wwJDRSxAOTeiTxXNb1-67">
          <mxGeometry relative="1" as="geometry">
            <mxPoint x="942.5" y="-210" as="sourcePoint" />
            <mxPoint x="1057.5" y="-260" as="targetPoint" />
          </mxGeometry>
        </mxCell>
        <mxCell id="Q0wwJDRSxAOTeiTxXNb1-169" value="" style="endArrow=none;html=1;rounded=0;entryX=0.599;entryY=1.132;entryDx=0;entryDy=0;entryPerimeter=0;exitX=0.5;exitY=0;exitDx=0;exitDy=0;" edge="1" parent="1" source="Q0wwJDRSxAOTeiTxXNb1-7" target="Q0wwJDRSxAOTeiTxXNb1-66">
          <mxGeometry relative="1" as="geometry">
            <mxPoint x="950" y="-180" as="sourcePoint" />
            <mxPoint x="1065" y="-230" as="targetPoint" />
          </mxGeometry>
        </mxCell>
        <mxCell id="Q0wwJDRSxAOTeiTxXNb1-172" value="" style="endArrow=classic;html=1;rounded=0;entryX=0.5;entryY=1;entryDx=0;entryDy=0;exitX=0.5;exitY=0;exitDx=0;exitDy=0;" edge="1" parent="1" source="Q0wwJDRSxAOTeiTxXNb1-63" target="Q0wwJDRSxAOTeiTxXNb1-7">
          <mxGeometry width="50" height="50" relative="1" as="geometry">
            <mxPoint x="950" y="-130" as="sourcePoint" />
            <mxPoint x="890" y="-50" as="targetPoint" />
          </mxGeometry>
        </mxCell>
        <mxCell id="Q0wwJDRSxAOTeiTxXNb1-178" value="" style="endArrow=none;html=1;rounded=0;entryX=0.34;entryY=0.962;entryDx=0;entryDy=0;exitX=0.5;exitY=0;exitDx=0;exitDy=0;entryPerimeter=0;" edge="1" parent="1" source="Q0wwJDRSxAOTeiTxXNb1-9" target="Q0wwJDRSxAOTeiTxXNb1-81">
          <mxGeometry relative="1" as="geometry">
            <mxPoint x="260" y="-570" as="sourcePoint" />
            <mxPoint x="405" y="-570" as="targetPoint" />
            <Array as="points" />
          </mxGeometry>
        </mxCell>
        <mxCell id="Q0wwJDRSxAOTeiTxXNb1-179" value="" style="endArrow=none;html=1;rounded=0;entryX=0;entryY=0.5;entryDx=0;entryDy=0;exitX=1;exitY=0.5;exitDx=0;exitDy=0;" edge="1" parent="1" source="Q0wwJDRSxAOTeiTxXNb1-181" target="Q0wwJDRSxAOTeiTxXNb1-7">
          <mxGeometry relative="1" as="geometry">
            <mxPoint x="50" y="-510" as="sourcePoint" />
            <mxPoint x="195" y="-510" as="targetPoint" />
            <Array as="points">
              <mxPoint x="730" y="-250" />
              <mxPoint x="730" y="-330" />
            </Array>
          </mxGeometry>
        </mxCell>
        <mxCell id="Q0wwJDRSxAOTeiTxXNb1-180" value="" style="endArrow=none;html=1;rounded=0;entryX=1;entryY=0.5;entryDx=0;entryDy=0;exitX=0;exitY=0.5;exitDx=0;exitDy=0;" edge="1" parent="1" source="Q0wwJDRSxAOTeiTxXNb1-8" target="Q0wwJDRSxAOTeiTxXNb1-183">
          <mxGeometry relative="1" as="geometry">
            <mxPoint x="-520" y="-463.21000000000004" as="sourcePoint" />
            <mxPoint x="-375" y="-463.21000000000004" as="targetPoint" />
          </mxGeometry>
        </mxCell>
        <mxCell id="Q0wwJDRSxAOTeiTxXNb1-181" value="is part of" style="shape=rhombus;perimeter=rhombusPerimeter;whiteSpace=wrap;html=1;align=center;rotation=0;" vertex="1" parent="1">
          <mxGeometry x="590" y="-280" width="120" height="60" as="geometry" />
        </mxCell>
        <mxCell id="Q0wwJDRSxAOTeiTxXNb1-183" value="has" style="shape=rhombus;perimeter=rhombusPerimeter;whiteSpace=wrap;html=1;align=center;" vertex="1" parent="1">
          <mxGeometry x="160" y="-360" width="120" height="60" as="geometry" />
        </mxCell>
        <mxCell id="Q0wwJDRSxAOTeiTxXNb1-184" value="" style="endArrow=none;html=1;rounded=0;entryX=0.5;entryY=0;entryDx=0;entryDy=0;exitX=0.5;exitY=1;exitDx=0;exitDy=0;" edge="1" parent="1" source="Q0wwJDRSxAOTeiTxXNb1-8" target="Q0wwJDRSxAOTeiTxXNb1-83">
          <mxGeometry relative="1" as="geometry">
            <mxPoint x="160" y="-310" as="sourcePoint" />
            <mxPoint x="305" y="-310" as="targetPoint" />
          </mxGeometry>
        </mxCell>
        <mxCell id="Q0wwJDRSxAOTeiTxXNb1-185" value="" style="endArrow=none;html=1;rounded=0;entryX=0.5;entryY=0;entryDx=0;entryDy=0;exitX=0.5;exitY=1;exitDx=0;exitDy=0;" edge="1" parent="1" source="Q0wwJDRSxAOTeiTxXNb1-8" target="Q0wwJDRSxAOTeiTxXNb1-84">
          <mxGeometry relative="1" as="geometry">
            <mxPoint x="37.5" y="-290" as="sourcePoint" />
            <mxPoint x="182.5" y="-290" as="targetPoint" />
          </mxGeometry>
        </mxCell>
        <mxCell id="Q0wwJDRSxAOTeiTxXNb1-186" value="" style="endArrow=none;html=1;rounded=0;entryX=0.5;entryY=1;entryDx=0;entryDy=0;exitX=0.5;exitY=0;exitDx=0;exitDy=0;" edge="1" parent="1" source="Q0wwJDRSxAOTeiTxXNb1-85" target="Q0wwJDRSxAOTeiTxXNb1-8">
          <mxGeometry relative="1" as="geometry">
            <mxPoint x="37.5" y="-260" as="sourcePoint" />
            <mxPoint x="182.5" y="-260" as="targetPoint" />
          </mxGeometry>
        </mxCell>
        <mxCell id="Q0wwJDRSxAOTeiTxXNb1-187" value="" style="endArrow=none;html=1;rounded=0;entryX=0.5;entryY=1;entryDx=0;entryDy=0;" edge="1" parent="1" target="Q0wwJDRSxAOTeiTxXNb1-78">
          <mxGeometry relative="1" as="geometry">
            <mxPoint x="120" y="-500" as="sourcePoint" />
            <mxPoint x="230.39999999999998" y="-639.86" as="targetPoint" />
            <Array as="points" />
          </mxGeometry>
        </mxCell>
        <mxCell id="Q0wwJDRSxAOTeiTxXNb1-191" value="" style="endArrow=none;html=1;rounded=0;entryX=0.5;entryY=1;entryDx=0;entryDy=0;" edge="1" parent="1" source="Q0wwJDRSxAOTeiTxXNb1-9" target="Q0wwJDRSxAOTeiTxXNb1-82">
          <mxGeometry relative="1" as="geometry">
            <mxPoint x="130" y="-500" as="sourcePoint" />
            <mxPoint x="160" y="-655" as="targetPoint" />
            <Array as="points" />
          </mxGeometry>
        </mxCell>
        <mxCell id="Q0wwJDRSxAOTeiTxXNb1-192" value="" style="endArrow=none;html=1;rounded=0;entryX=1;entryY=0.5;entryDx=0;entryDy=0;exitX=0.5;exitY=0;exitDx=0;exitDy=0;" edge="1" parent="1" source="Q0wwJDRSxAOTeiTxXNb1-9" target="Q0wwJDRSxAOTeiTxXNb1-79">
          <mxGeometry relative="1" as="geometry">
            <mxPoint x="100" y="-530" as="sourcePoint" />
            <mxPoint x="110" y="-630" as="targetPoint" />
            <Array as="points" />
          </mxGeometry>
        </mxCell>
        <mxCell id="Q0wwJDRSxAOTeiTxXNb1-193" value="" style="endArrow=none;html=1;rounded=0;entryX=1;entryY=0.5;entryDx=0;entryDy=0;exitX=0.5;exitY=0;exitDx=0;exitDy=0;" edge="1" parent="1" source="Q0wwJDRSxAOTeiTxXNb1-9" target="Q0wwJDRSxAOTeiTxXNb1-80">
          <mxGeometry relative="1" as="geometry">
            <mxPoint x="80" y="-380" as="sourcePoint" />
            <mxPoint x="80" y="-570" as="targetPoint" />
            <Array as="points" />
          </mxGeometry>
        </mxCell>
        <mxCell id="Q0wwJDRSxAOTeiTxXNb1-194" value="" style="endArrow=classic;html=1;rounded=0;entryX=1;entryY=0.5;entryDx=0;entryDy=0;" edge="1" parent="1" target="Q0wwJDRSxAOTeiTxXNb1-8">
          <mxGeometry width="50" height="50" relative="1" as="geometry">
            <mxPoint x="590" y="-250" as="sourcePoint" />
            <mxPoint x="570" y="-370" as="targetPoint" />
            <Array as="points">
              <mxPoint x="550" y="-250" />
              <mxPoint x="550" y="-330" />
            </Array>
          </mxGeometry>
        </mxCell>
        <mxCell id="Q0wwJDRSxAOTeiTxXNb1-195" value="" style="endArrow=classic;html=1;rounded=0;entryX=1;entryY=0.5;entryDx=0;entryDy=0;exitX=0;exitY=0.5;exitDx=0;exitDy=0;" edge="1" parent="1" source="Q0wwJDRSxAOTeiTxXNb1-199" target="Q0wwJDRSxAOTeiTxXNb1-9">
          <mxGeometry width="50" height="50" relative="1" as="geometry">
            <mxPoint x="645" y="-375.9807621135333" as="sourcePoint" />
            <mxPoint x="335" y="-480" as="targetPoint" />
            <Array as="points">
              <mxPoint x="540" y="-370" />
              <mxPoint x="540" y="-480" />
            </Array>
          </mxGeometry>
        </mxCell>
        <mxCell id="Q0wwJDRSxAOTeiTxXNb1-196" value="" style="endArrow=none;html=1;rounded=0;entryX=0;entryY=0.25;entryDx=0;entryDy=0;exitX=1;exitY=0.5;exitDx=0;exitDy=0;" edge="1" parent="1" source="Q0wwJDRSxAOTeiTxXNb1-199" target="Q0wwJDRSxAOTeiTxXNb1-7">
          <mxGeometry relative="1" as="geometry">
            <mxPoint x="675" y="-324.01923788646695" as="sourcePoint" />
            <mxPoint x="260" y="-480" as="targetPoint" />
            <Array as="points">
              <mxPoint x="730" y="-370" />
              <mxPoint x="730" y="-340" />
            </Array>
          </mxGeometry>
        </mxCell>
        <mxCell id="Q0wwJDRSxAOTeiTxXNb1-197" value="" style="endArrow=classic;html=1;rounded=0;entryX=0.391;entryY=1.003;entryDx=0;entryDy=0;exitX=0;exitY=0.5;exitDx=0;exitDy=0;entryPerimeter=0;" edge="1" parent="1" source="Q0wwJDRSxAOTeiTxXNb1-183" target="Q0wwJDRSxAOTeiTxXNb1-9">
          <mxGeometry width="50" height="50" relative="1" as="geometry">
            <mxPoint x="420" y="-510" as="sourcePoint" />
            <mxPoint x="-90" y="-410" as="targetPoint" />
            <Array as="points">
              <mxPoint x="110" y="-330" />
            </Array>
          </mxGeometry>
        </mxCell>
        <mxCell id="Q0wwJDRSxAOTeiTxXNb1-199" value="has" style="shape=rhombus;perimeter=rhombusPerimeter;whiteSpace=wrap;html=1;align=center;rotation=0;" vertex="1" parent="1">
          <mxGeometry x="580" y="-400" width="120" height="60" as="geometry" />
        </mxCell>
        <mxCell id="Q0wwJDRSxAOTeiTxXNb1-201" value="owned by" style="shape=rhombus;perimeter=rhombusPerimeter;whiteSpace=wrap;html=1;align=center;" vertex="1" parent="1">
          <mxGeometry x="1090" y="-360" width="120" height="60" as="geometry" />
        </mxCell>
        <mxCell id="Q0wwJDRSxAOTeiTxXNb1-202" value="" style="endArrow=none;html=1;rounded=0;entryX=0.5;entryY=1;entryDx=0;entryDy=0;exitX=0.5;exitY=0;exitDx=0;exitDy=0;" edge="1" parent="1" source="Q0wwJDRSxAOTeiTxXNb1-74" target="Q0wwJDRSxAOTeiTxXNb1-6">
          <mxGeometry relative="1" as="geometry">
            <mxPoint x="1030" y="-111.18000000000012" as="sourcePoint" />
            <mxPoint x="1175" y="-111.18000000000012" as="targetPoint" />
          </mxGeometry>
        </mxCell>
        <mxCell id="Q0wwJDRSxAOTeiTxXNb1-203" value="" style="endArrow=none;html=1;rounded=0;entryX=0;entryY=0.5;entryDx=0;entryDy=0;exitX=0.5;exitY=1;exitDx=0;exitDy=0;" edge="1" parent="1" source="Q0wwJDRSxAOTeiTxXNb1-6" target="Q0wwJDRSxAOTeiTxXNb1-70">
          <mxGeometry relative="1" as="geometry">
            <mxPoint x="1250" y="-240.59000000000012" as="sourcePoint" />
            <mxPoint x="1395" y="-240.59000000000012" as="targetPoint" />
          </mxGeometry>
        </mxCell>
        <mxCell id="Q0wwJDRSxAOTeiTxXNb1-204" value="" style="endArrow=none;html=1;rounded=0;entryX=0;entryY=0.5;entryDx=0;entryDy=0;exitX=1;exitY=0.5;exitDx=0;exitDy=0;" edge="1" parent="1" source="Q0wwJDRSxAOTeiTxXNb1-7" target="Q0wwJDRSxAOTeiTxXNb1-201">
          <mxGeometry relative="1" as="geometry">
            <mxPoint x="980" y="-330.8300000000001" as="sourcePoint" />
            <mxPoint x="1125" y="-330.8300000000001" as="targetPoint" />
          </mxGeometry>
        </mxCell>
        <mxCell id="Q0wwJDRSxAOTeiTxXNb1-205" value="" style="endArrow=none;html=1;rounded=0;entryX=0;entryY=0.5;entryDx=0;entryDy=0;exitX=0.5;exitY=1;exitDx=0;exitDy=0;" edge="1" parent="1" source="Q0wwJDRSxAOTeiTxXNb1-6" target="Q0wwJDRSxAOTeiTxXNb1-72">
          <mxGeometry relative="1" as="geometry">
            <mxPoint x="1160" y="-141.18000000000012" as="sourcePoint" />
            <mxPoint x="1305" y="-141.18000000000012" as="targetPoint" />
          </mxGeometry>
        </mxCell>
        <mxCell id="Q0wwJDRSxAOTeiTxXNb1-206" value="" style="endArrow=classic;html=1;rounded=0;entryX=0.5;entryY=0;entryDx=0;entryDy=0;exitX=0.5;exitY=1;exitDx=0;exitDy=0;" edge="1" parent="1" source="Q0wwJDRSxAOTeiTxXNb1-201" target="Q0wwJDRSxAOTeiTxXNb1-6">
          <mxGeometry width="50" height="50" relative="1" as="geometry">
            <mxPoint x="1430" y="-135" as="sourcePoint" />
            <mxPoint x="1480" y="-185" as="targetPoint" />
          </mxGeometry>
        </mxCell>
        <mxCell id="Q0wwJDRSxAOTeiTxXNb1-215" value="confirm by&amp;nbsp;" style="shape=rhombus;perimeter=rhombusPerimeter;whiteSpace=wrap;html=1;align=center;" vertex="1" parent="1">
          <mxGeometry x="-150" y="290" width="120" height="60" as="geometry" />
        </mxCell>
        <mxCell id="Q0wwJDRSxAOTeiTxXNb1-216" value="" style="endArrow=none;html=1;rounded=0;entryX=1;entryY=0.5;entryDx=0;entryDy=0;exitX=0;exitY=0.5;exitDx=0;exitDy=0;" edge="1" parent="1" source="Q0wwJDRSxAOTeiTxXNb1-10" target="Q0wwJDRSxAOTeiTxXNb1-215">
          <mxGeometry relative="1" as="geometry">
            <mxPoint x="-332.5" y="419.40999999999997" as="sourcePoint" />
            <mxPoint x="-187.5" y="419.40999999999997" as="targetPoint" />
          </mxGeometry>
        </mxCell>
        <mxCell id="Q0wwJDRSxAOTeiTxXNb1-217" value="" style="endArrow=none;html=1;rounded=0;exitX=1;exitY=0.5;exitDx=0;exitDy=0;entryX=0.5;entryY=1;entryDx=0;entryDy=0;" edge="1" parent="1" source="Q0wwJDRSxAOTeiTxXNb1-115" target="Q0wwJDRSxAOTeiTxXNb1-3">
          <mxGeometry relative="1" as="geometry">
            <mxPoint x="245" y="460" as="sourcePoint" />
            <mxPoint x="420" y="190" as="targetPoint" />
            <Array as="points">
              <mxPoint x="415" y="320" />
            </Array>
          </mxGeometry>
        </mxCell>
        <mxCell id="Q0wwJDRSxAOTeiTxXNb1-221" value="process" style="shape=rhombus;perimeter=rhombusPerimeter;whiteSpace=wrap;html=1;align=center;" vertex="1" parent="1">
          <mxGeometry x="-385" y="-510" width="120" height="60" as="geometry" />
        </mxCell>
        <mxCell id="Q0wwJDRSxAOTeiTxXNb1-222" value="" style="endArrow=none;html=1;rounded=0;entryX=0.5;entryY=1;entryDx=0;entryDy=0;exitX=0.5;exitY=0;exitDx=0;exitDy=0;" edge="1" parent="1" source="Q0wwJDRSxAOTeiTxXNb1-11" target="Q0wwJDRSxAOTeiTxXNb1-221">
          <mxGeometry relative="1" as="geometry">
            <mxPoint x="-330" y="-260" as="sourcePoint" />
            <mxPoint x="-185" y="-260" as="targetPoint" />
          </mxGeometry>
        </mxCell>
        <mxCell id="Q0wwJDRSxAOTeiTxXNb1-223" value="&lt;font style=&quot;font-size: 48px;&quot;&gt;&lt;b&gt;&lt;u&gt;Ice-Cream Parlor&lt;/u&gt;&lt;/b&gt;&lt;/font&gt;" style="text;html=1;align=center;verticalAlign=middle;resizable=0;points=[];autosize=1;strokeColor=none;fillColor=none;" vertex="1" parent="1">
          <mxGeometry x="165" y="-870" width="410" height="70" as="geometry" />
        </mxCell>
        <mxCell id="Q0wwJDRSxAOTeiTxXNb1-224" value="customer" style="whiteSpace=wrap;html=1;align=center;" vertex="1" parent="1">
          <mxGeometry x="-60" y="50" width="100" height="40" as="geometry" />
        </mxCell>
      </root>
    </mxGraphModel>
  </diagram>
</mxfile>
